<?xml version="1.0" encoding="utf-8"?>
<!-- Generator: Adobe Illustrator 16.0.0, SVG Export Plug-In . SVG Version: 6.00 Build 0)  -->
<!DOCTYPE svg PUBLIC "-//W3C//DTD SVG 1.1//EN" "http://www.w3.org/Graphics/SVG/1.1/DTD/svg11.dtd">
<svg version="1.1" id="Layer_1" xmlns="http://www.w3.org/2000/svg" xmlns:xlink="http://www.w3.org/1999/xlink" x="0px" y="0px"
	 width="121px" height="36px" viewBox="0 0 121 36" enable-background="new 0 0 121 36" xml:space="preserve">
<g>
	<g>
		<defs>
			<rect id="SVGID_1_" x="106" y="0.813" width="13.971" height="10.53"/>
		</defs>
		<clipPath id="SVGID_2_">
			<use xlink:href="#SVGID_1_"  overflow="visible"/>
		</clipPath>
		<rect x="105.908" y="0.928" clip-path="url(#SVGID_2_)" fill="#0505E7" width="6.093" height="4.354"/>
		<rect x="113.908" y="0.928" clip-path="url(#SVGID_2_)" fill="#C92307" width="6.092" height="4.354"/>
		<rect x="105.908" y="6.914" clip-path="url(#SVGID_2_)" fill="#C92307" width="6.093" height="4.353"/>
		<rect x="113.908" y="6.914" clip-path="url(#SVGID_2_)" fill="#0505E7" width="6.092" height="4.353"/>
	</g>
	
		<rect x="106" y="0.813" fill="none" stroke="#231F20" stroke-width="0.25" stroke-miterlimit="3.8636" width="13.971" height="10.53"/>
	<path fill-rule="evenodd" clip-rule="evenodd" fill="#DDDDDD" d="M2.012,18.504c0-9.257,7.196-16.763,16.073-16.763h1.438
		c8.877,0,16.073,7.505,16.073,16.763c0,9.261-7.195,16.765-16.073,16.765h-1.438C9.208,35.269,2.012,27.765,2.012,18.504z"/>
	<ellipse fill-rule="evenodd" clip-rule="evenodd" fill="#0084DC" cx="18.804" cy="18.504" rx="14.611" ry="14.585"/>
	<rect x="15.855" y="10.886" fill="#FFFFFF" width="5.462" height="15.676"/>
	<rect x="10.735" y="15.999" fill="#FFFFFF" width="15.702" height="5.454"/>
	<path fill-rule="evenodd" clip-rule="evenodd" fill="#0099FF" d="M42.765,9.211V5.5h1.864c1.045,0,1.681,0.674,1.681,1.834
		c0,1.157-0.635,1.877-1.708,1.877H42.765z M41.511,13.957h1.254v-3.574h1.299c0.551,0,0.734,0.061,0.988,0.467l1.344,2.385
		c0.278,0.626,0.523,0.722,1.194,0.722h0.642v-1.17h-0.17c-0.315,0-0.522-0.025-0.645-0.285l-1.034-2.084
		c-0.159-0.308-0.413-0.431-0.413-0.431V9.96c0.656-0.15,1.594-0.954,1.594-2.687c0-1.882-1.06-2.944-2.779-2.944h-4.123V5.5h0.85
		V13.957z"/>
	<path fill-rule="evenodd" clip-rule="evenodd" fill="#0099FF" d="M49.578,10.041c0.196-1.255,0.978-1.928,1.941-1.928
		c0.821,0,1.512,0.672,1.552,1.928H49.578z M48.272,10.72c0,1.712,1.371,3.236,3.456,3.236c1.556,0,2.495-1.032,2.495-1.032
		l-0.526-0.813c0,0-0.77,0.674-1.904,0.674c-1.173,0-2.189-0.697-2.267-1.929h4.759c0,0,0.038-0.31,0.038-0.458
		c0-1.854-0.951-3.456-2.79-3.456C49.656,6.943,48.272,8.517,48.272,10.72z"/>
	<path fill-rule="evenodd" clip-rule="evenodd" fill="#0099FF" d="M54.835,12.66c0,0,0.87,1.296,2.575,1.296
		c1.331,0,2.364-0.859,2.364-2.034c0-2.119-3.49-1.854-3.49-3.058c0-0.501,0.464-0.751,1.175-0.751c0.469,0,1.062,0.161,1.062,0.538
		v0.313h1.253V8.363c0-1.104-1.49-1.42-2.29-1.42c-1.354,0-2.452,0.675-2.452,1.971c0,2.042,3.489,1.917,3.489,3.058
		c0,0.551-0.513,0.814-1.1,0.814c-1.162,0-1.935-0.94-1.935-0.94L54.835,12.66z"/>
	<path fill-rule="evenodd" clip-rule="evenodd" fill="#0099FF" d="M60.919,11.425c0,1.75,0.753,2.534,2.282,2.534
		c1.366,0,2.258-0.862,2.544-1.528h0.025c0,0.066-0.014,0.245-0.014,0.468v0.268c0,0.507,0.271,0.79,0.828,0.79h1.213v-1.17h-0.536
		c-0.187,0-0.288-0.098-0.288-0.303v-5.54h-1.257v3.286c0,1.322-0.833,2.554-2.256,2.554c-1.096,0-1.287-0.757-1.287-1.705V7.817
		c0-0.605-0.244-0.874-0.84-0.874h-1.237v1.17h0.535c0.183,0,0.288,0.093,0.288,0.297V11.425z"/>
	<path fill-rule="evenodd" clip-rule="evenodd" fill="#0099FF" d="M68.988,13.957h1.256v-3.164c0-0.31,0.025-0.606,0.09-0.875
		c0.247-0.97,0.924-1.805,1.887-1.805c1.001,0,1.13,0.821,1.13,1.71v4.133h1.254v-3.164c0-0.35,0.041-0.646,0.104-0.93
		c0.234-0.929,0.939-1.75,1.848-1.75c0.973,0,1.157,0.754,1.157,1.71v3.23c0,0.635,0.247,0.902,0.828,0.902h1.25v-1.17h-0.538
		c-0.18,0-0.285-0.095-0.285-0.298V9.541c0-1.733-0.686-2.597-2.165-2.597c-1.066,0-1.978,0.718-2.341,1.533h-0.024
		c-0.222-1.015-0.854-1.533-1.971-1.533c-1.027,0-1.938,0.758-2.248,1.546h-0.027c0-0.088,0.015-0.268,0.015-0.49V7.732
		c0-0.521-0.26-0.789-0.829-0.789h-1.212v1.17h0.538c0.182,0,0.285,0.096,0.285,0.302V13.957z"/>
	<path fill-rule="evenodd" clip-rule="evenodd" fill="#0099FF" d="M80.982,10.041c0.194-1.255,0.975-1.928,1.941-1.928
		c0.821,0,1.512,0.672,1.549,1.928H80.982z M79.677,10.72c0,1.712,1.371,3.236,3.456,3.236c1.551,0,2.496-1.032,2.496-1.032
		l-0.528-0.813c0,0-0.771,0.674-1.904,0.674c-1.172,0-2.188-0.697-2.267-1.929h4.759c0,0,0.04-0.31,0.04-0.458
		c0-1.854-0.955-3.456-2.793-3.456C81.06,6.943,79.677,8.517,79.677,10.72z"/>
	<path fill-rule="evenodd" clip-rule="evenodd" fill="#0099FF" d="M87.308,13.957h1.254v-3.287c0-0.345,0.024-0.659,0.106-0.934
		c0.236-0.935,0.966-1.622,1.884-1.622c0.953,0,1.116,0.755,1.116,1.716v3.225c0,0.635,0.247,0.902,0.828,0.902h1.253v-1.17h-0.537
		c-0.186,0-0.288-0.097-0.288-0.298V9.531c0-1.734-0.699-2.588-2.161-2.588c-1.293,0-2,0.945-2.238,1.534h-0.027
		c0-0.075,0.027-0.255,0.027-0.477V7.732c0-0.521-0.274-0.789-0.828-0.789h-1.213v1.17h0.537c0.182,0,0.287,0.096,0.287,0.302
		V13.957z"/>
	<path fill-rule="evenodd" clip-rule="evenodd" fill="#0099FF" d="M43.774,24.543c-1.17,0-1.991-0.914-1.991-2.335
		c0-1.487,0.919-2.338,2.018-2.338c1.35,0,2.001,1.163,2.001,2.324C45.803,23.859,44.819,24.543,43.774,24.543z M40.53,22.208
		c0,2.024,1.09,3.504,2.979,3.504c1.726,0,2.307-1.274,2.307-1.274h0.027c0,0.148-0.015,0.302-0.015,0.516
		c0,0.478,0.235,0.759,0.801,0.759h1.214v-1.169h-0.537c-0.183,0-0.288-0.092-0.288-0.293v-7.261c0-0.635-0.247-0.902-0.828-0.902
		h-1.304v1.169h0.57c0.196,0,0.306,0.097,0.306,0.302v1.754c0,0.264,0.026,0.473,0.026,0.473h-0.026c0,0-0.543-1.085-2.17-1.085
		C41.733,18.7,40.53,20.129,40.53,22.208z"/>
	<path fill-rule="evenodd" clip-rule="evenodd" fill="#0099FF" d="M49.032,21.798c0.196-1.256,0.977-1.928,1.941-1.928
		c0.822,0,1.512,0.672,1.552,1.928H49.032z M47.726,22.476c0,1.715,1.373,3.236,3.458,3.236c1.553,0,2.494-1.029,2.494-1.029
		l-0.526-0.811c0,0-0.77,0.671-1.905,0.671c-1.171,0-2.188-0.696-2.266-1.928h4.759c0,0,0.039-0.312,0.039-0.46
		c0-1.852-0.953-3.456-2.792-3.456C49.111,18.7,47.726,20.273,47.726,22.476z"/>
	<path fill-rule="evenodd" clip-rule="evenodd" fill="#01BE9D" d="M54.392,30.981c0,0,2.077,2.504,5.93,2.504
		c3.626,0,5.7-2.179,5.7-5.101c0-6.275-8.723-5.409-8.723-9.28c0-1.435,1.251-2.571,3.233-2.571c1.551,0,2.96,0.732,2.96,1.733
		v0.893h2.128v-1.568c0-2.386-3.032-3.179-5.023-3.179c-3.517,0-5.793,1.936-5.793,4.774c0,5.951,8.724,5.329,8.724,9.335
		c0,1.759-1.435,2.839-3.153,2.839c-2.737,0-4.518-2.298-4.518-2.298L54.392,30.981z"/>
	<path fill-rule="evenodd" clip-rule="evenodd" fill="#01BE9D" d="M69.112,29.44c0-2.369,3.315-2.471,5.148-2.471h0.631v0.432
		c0,1.912-1.335,4.102-3.396,4.102C69.891,31.503,69.112,30.484,69.112,29.44z M66.588,29.565c0,2.594,2.188,3.979,4.381,3.979
		c3.042,0,4.052-2.599,4.052-2.599h0.053c0-0.003-0.053,0.319-0.053,0.737c0,0.889,0.464,1.429,1.636,1.429h2.352v-2.043h-1.055
		c-0.362,0-0.568-0.179-0.568-0.558v-5.376c0-3.256-1.142-5.559-5.289-5.559c-1.219,0-4.22,0.316-4.22,2.563v1.455h2.125v-0.842
		c0-0.963,1.474-1.136,2.069-1.136c1.972,0,2.793,0.931,2.793,3.518v0.147h-0.547C72.176,25.282,66.588,25.519,66.588,29.565z"/>
	<path fill-rule="evenodd" clip-rule="evenodd" fill="#01BE9D" d="M80.58,31.536c0,1.108,0.489,1.575,1.649,1.575h2.47v-2.043
		h-1.057c-0.361,0-0.566-0.185-0.566-0.58v-14.13c0-1.105-0.487-1.573-1.648-1.573h-2.471v2.041h1.057
		c0.361,0,0.566,0.184,0.566,0.58V31.536z"/>
	<path fill-rule="evenodd" clip-rule="evenodd" fill="#01BE9D" d="M86.272,28.444c0,3.625,1.492,5.041,4.426,5.041
		c2.573,0,4.244-1.558,4.785-2.827h0.052c0-0.146-0.027,0.2-0.027,0.606v0.47c0,0.886,0.539,1.377,1.646,1.377h2.397v-2.043h-1.057
		c-0.363,0-0.565-0.185-0.565-0.582V20.011h-2.498v6.124c0,2.769-1.569,5.225-4.243,5.225c-2.06,0-2.418-1.509-2.418-3.398v-6.425
		c0-1.06-0.49-1.525-1.675-1.525h-2.443v2.041h1.053c0.36,0,0.567,0.188,0.567,0.596V28.444z"/>
	<path fill-rule="evenodd" clip-rule="evenodd" fill="#01BE9D" d="M106.093,31.359c-2.208,0-3.755-1.884-3.755-4.798
		c0-3.051,1.732-4.804,3.807-4.804c2.548,0,3.779,2.39,3.779,4.776C109.924,29.954,108.061,31.359,106.093,31.359z M99.788,26.562
		c0,4.163,2.214,6.924,5.803,6.924c3.258,0,4.358-2.338,4.358-2.338h0.052c0-0.005-0.024,0.264-0.024,0.636
		c0,0.837,0.462,1.328,1.595,1.328h2.394v-2.043h-1.056c-0.36,0-0.564-0.185-0.564-0.582V16.358c0-1.105-0.49-1.573-1.648-1.573
		h-2.505v2.041h1.077c0.371,0,0.577,0.188,0.577,0.589v3.334c0,0.479,0.054,0.861,0.054,0.861h-0.054c0,0-1.025-1.972-4.096-1.972
		C102.236,19.639,99.788,22.29,99.788,26.562z"/>
</g>
</svg>
